<?xml version="1.0" encoding="UTF-8" standalone="no"?>
<!DOCTYPE svg PUBLIC "-//W3C//DTD SVG 1.1//EN"
 "http://www.w3.org/Graphics/SVG/1.1/DTD/svg11.dtd">
<!-- Generated by graphviz version 2.47.3 (20210619.1520)
 -->
<!-- Title: dependencies Pages: 1 -->
<svg width="714pt" height="174pt"
 viewBox="0.00 0.00 714.00 173.80" xmlns="http://www.w3.org/2000/svg" xmlns:xlink="http://www.w3.org/1999/xlink">
<g id="graph0" class="graph" transform="scale(1 1) rotate(0) translate(4 169.8)">
<title>dependencies</title>
<polygon fill="white" stroke="transparent" points="-4,4 -4,-169.8 710,-169.8 710,4 -4,4"/>
<text text-anchor="middle" x="353" y="-8.2" font-family="sans-serif" font-size="14.00">dependencies</text>
<g id="clust1" class="cluster">
<title>cluster_OrderModule</title>
<polygon fill="none" stroke="black" stroke-dasharray="1,5" points="8,-32.8 8,-157.8 698,-157.8 698,-32.8 8,-32.8"/>
</g>
<g id="clust2" class="cluster">
<title>cluster_OrderModule_declarations</title>
<polygon fill="none" stroke="black" points="16,-40.8 16,-92.8 690,-92.8 690,-40.8 16,-40.8"/>
</g>
<!-- OrderContainerComponent -->
<g id="node1" class="node">
<title>OrderContainerComponent</title>
<polygon fill="#ffffb3" stroke="black" points="681.68,-84.8 512.32,-84.8 512.32,-48.8 681.68,-48.8 681.68,-84.8"/>
<text text-anchor="middle" x="597" y="-62.6" font-family="Times,serif" font-size="14.00">OrderContainerComponent</text>
</g>
<!-- OrderModule -->
<g id="node5" class="node">
<title>OrderModule</title>
<polygon fill="#8dd3c7" stroke="black" points="386.19,-149.8 383.19,-153.8 362.19,-153.8 359.19,-149.8 293.81,-149.8 293.81,-113.8 386.19,-113.8 386.19,-149.8"/>
<text text-anchor="middle" x="340" y="-127.6" font-family="Times,serif" font-size="14.00">OrderModule</text>
</g>
<!-- OrderContainerComponent&#45;&gt;OrderModule -->
<g id="edge1" class="edge">
<title>OrderContainerComponent&#45;&gt;OrderModule</title>
<path fill="none" stroke="black" d="M597,-84.91C597,-104.14 597,-131.8 597,-131.8 597,-131.8 396.24,-131.8 396.24,-131.8"/>
<polygon fill="black" stroke="black" points="396.24,-128.3 386.24,-131.8 396.24,-135.3 396.24,-128.3"/>
</g>
<!-- OrderDetailComponent -->
<g id="node2" class="node">
<title>OrderDetailComponent</title>
<polygon fill="#ffffb3" stroke="black" points="494.18,-84.8 345.82,-84.8 345.82,-48.8 494.18,-48.8 494.18,-84.8"/>
<text text-anchor="middle" x="420" y="-62.6" font-family="Times,serif" font-size="14.00">OrderDetailComponent</text>
</g>
<!-- OrderDetailComponent&#45;&gt;OrderModule -->
<g id="edge2" class="edge">
<title>OrderDetailComponent&#45;&gt;OrderModule</title>
<path fill="none" stroke="black" d="M366,-84.91C366,-84.91 366,-103.79 366,-103.79"/>
<polygon fill="black" stroke="black" points="362.5,-103.79 366,-113.79 369.5,-103.79 362.5,-103.79"/>
</g>
<!-- OrderListComponent -->
<g id="node3" class="node">
<title>OrderListComponent</title>
<polygon fill="#ffffb3" stroke="black" points="327.75,-84.8 192.25,-84.8 192.25,-48.8 327.75,-48.8 327.75,-84.8"/>
<text text-anchor="middle" x="260" y="-62.6" font-family="Times,serif" font-size="14.00">OrderListComponent</text>
</g>
<!-- OrderListComponent&#45;&gt;OrderModule -->
<g id="edge3" class="edge">
<title>OrderListComponent&#45;&gt;OrderModule</title>
<path fill="none" stroke="black" d="M310.89,-84.91C310.89,-84.91 310.89,-103.79 310.89,-103.79"/>
<polygon fill="black" stroke="black" points="307.39,-103.79 310.89,-113.79 314.39,-103.79 307.39,-103.79"/>
</g>
<!-- OrderSingleComponent -->
<g id="node4" class="node">
<title>OrderSingleComponent</title>
<polygon fill="#ffffb3" stroke="black" points="173.75,-84.8 24.25,-84.8 24.25,-48.8 173.75,-48.8 173.75,-84.8"/>
<text text-anchor="middle" x="99" y="-62.6" font-family="Times,serif" font-size="14.00">OrderSingleComponent</text>
</g>
<!-- OrderSingleComponent&#45;&gt;OrderModule -->
<g id="edge4" class="edge">
<title>OrderSingleComponent&#45;&gt;OrderModule</title>
<path fill="none" stroke="black" d="M99,-84.91C99,-104.14 99,-131.8 99,-131.8 99,-131.8 283.82,-131.8 283.82,-131.8"/>
<polygon fill="black" stroke="black" points="283.82,-135.3 293.82,-131.8 283.82,-128.3 283.82,-135.3"/>
</g>
</g>
</svg>
