<?xml version="1.0" encoding="UTF-8" standalone="no"?>
<!DOCTYPE svg PUBLIC "-//W3C//DTD SVG 1.1//EN"
 "http://www.w3.org/Graphics/SVG/1.1/DTD/svg11.dtd">
<!-- Generated by graphviz version 2.47.3 (20210619.1520)
 -->
<!-- Title: dependencies Pages: 1 -->
<svg width="980pt" height="174pt"
 viewBox="0.00 0.00 980.00 173.80" xmlns="http://www.w3.org/2000/svg" xmlns:xlink="http://www.w3.org/1999/xlink">
<g id="graph0" class="graph" transform="scale(1 1) rotate(0) translate(4 169.8)">
<title>dependencies</title>
<polygon fill="white" stroke="transparent" points="-4,4 -4,-169.8 976,-169.8 976,4 -4,4"/>
<text text-anchor="middle" x="486" y="-8.2" font-family="sans-serif" font-size="14.00">dependencies</text>
<g id="clust1" class="cluster">
<title>cluster_OrderModule</title>
<polygon fill="none" stroke="black" stroke-dasharray="1,5" points="8,-32.8 8,-157.8 964,-157.8 964,-32.8 8,-32.8"/>
</g>
<g id="clust2" class="cluster">
<title>cluster_OrderModule_declarations</title>
<polygon fill="none" stroke="black" points="282,-40.8 282,-92.8 956,-92.8 956,-40.8 282,-40.8"/>
</g>
<g id="clust7" class="cluster">
<title>cluster_OrderModule_imports</title>
<polygon fill="none" stroke="black" points="16,-40.8 16,-92.8 274,-92.8 274,-40.8 16,-40.8"/>
</g>
<!-- OrderContainerComponent -->
<g id="node1" class="node">
<title>OrderContainerComponent</title>
<polygon fill="#ffffb3" stroke="black" points="947.68,-84.8 778.32,-84.8 778.32,-48.8 947.68,-48.8 947.68,-84.8"/>
<text text-anchor="middle" x="863" y="-62.6" font-family="Times,serif" font-size="14.00">OrderContainerComponent</text>
</g>
<!-- OrderModule -->
<g id="node5" class="node">
<title>OrderModule</title>
<polygon fill="#8dd3c7" stroke="black" points="491.19,-149.8 488.19,-153.8 467.19,-153.8 464.19,-149.8 398.81,-149.8 398.81,-113.8 491.19,-113.8 491.19,-149.8"/>
<text text-anchor="middle" x="445" y="-127.6" font-family="Times,serif" font-size="14.00">OrderModule</text>
</g>
<!-- OrderContainerComponent&#45;&gt;OrderModule -->
<g id="edge1" class="edge">
<title>OrderContainerComponent&#45;&gt;OrderModule</title>
<path fill="none" stroke="black" d="M863,-85.08C863,-106.12 863,-137.8 863,-137.8 863,-137.8 501.33,-137.8 501.33,-137.8"/>
<polygon fill="black" stroke="black" points="501.33,-134.3 491.33,-137.8 501.33,-141.3 501.33,-134.3"/>
</g>
<!-- OrderDetailComponent -->
<g id="node2" class="node">
<title>OrderDetailComponent</title>
<polygon fill="#ffffb3" stroke="black" points="760.18,-84.8 611.82,-84.8 611.82,-48.8 760.18,-48.8 760.18,-84.8"/>
<text text-anchor="middle" x="686" y="-62.6" font-family="Times,serif" font-size="14.00">OrderDetailComponent</text>
</g>
<!-- OrderDetailComponent&#45;&gt;OrderModule -->
<g id="edge2" class="edge">
<title>OrderDetailComponent&#45;&gt;OrderModule</title>
<path fill="none" stroke="black" d="M686,-84.82C686,-102.17 686,-125.8 686,-125.8 686,-125.8 501.18,-125.8 501.18,-125.8"/>
<polygon fill="black" stroke="black" points="501.18,-122.3 491.18,-125.8 501.18,-129.3 501.18,-122.3"/>
</g>
<!-- OrderListComponent -->
<g id="node3" class="node">
<title>OrderListComponent</title>
<polygon fill="#ffffb3" stroke="black" points="593.75,-84.8 458.25,-84.8 458.25,-48.8 593.75,-48.8 593.75,-84.8"/>
<text text-anchor="middle" x="526" y="-62.6" font-family="Times,serif" font-size="14.00">OrderListComponent</text>
</g>
<!-- OrderListComponent&#45;&gt;OrderModule -->
<g id="edge3" class="edge">
<title>OrderListComponent&#45;&gt;OrderModule</title>
<path fill="none" stroke="black" d="M474.61,-84.91C474.61,-84.91 474.61,-103.79 474.61,-103.79"/>
<polygon fill="black" stroke="black" points="471.11,-103.79 474.61,-113.79 478.11,-103.79 471.11,-103.79"/>
</g>
<!-- OrderSingleComponent -->
<g id="node4" class="node">
<title>OrderSingleComponent</title>
<polygon fill="#ffffb3" stroke="black" points="439.75,-84.8 290.25,-84.8 290.25,-48.8 439.75,-48.8 439.75,-84.8"/>
<text text-anchor="middle" x="365" y="-62.6" font-family="Times,serif" font-size="14.00">OrderSingleComponent</text>
</g>
<!-- OrderSingleComponent&#45;&gt;OrderModule -->
<g id="edge4" class="edge">
<title>OrderSingleComponent&#45;&gt;OrderModule</title>
<path fill="none" stroke="black" d="M419.39,-84.91C419.39,-84.91 419.39,-103.79 419.39,-103.79"/>
<polygon fill="black" stroke="black" points="415.89,-103.79 419.39,-113.79 422.89,-103.79 415.89,-103.79"/>
</g>
<!-- OrderRoutingModule -->
<g id="node6" class="node">
<title>OrderRoutingModule</title>
<polygon fill="#8dd3c7" stroke="black" points="265.81,-84.8 262.81,-88.8 241.81,-88.8 238.81,-84.8 128.19,-84.8 128.19,-48.8 265.81,-48.8 265.81,-84.8"/>
<text text-anchor="middle" x="197" y="-62.6" font-family="Times,serif" font-size="14.00">OrderRoutingModule</text>
</g>
<!-- OrderRoutingModule&#45;&gt;OrderModule -->
<g id="edge5" class="edge">
<title>OrderRoutingModule&#45;&gt;OrderModule</title>
<path fill="none" stroke="black" d="M197,-84.82C197,-102.17 197,-125.8 197,-125.8 197,-125.8 388.64,-125.8 388.64,-125.8"/>
<polygon fill="black" stroke="black" points="388.64,-129.3 398.64,-125.8 388.64,-122.3 388.64,-129.3"/>
</g>
<!-- UserModule -->
<g id="node7" class="node">
<title>UserModule</title>
<polygon fill="#8dd3c7" stroke="black" points="109.98,-84.8 106.98,-88.8 85.98,-88.8 82.98,-84.8 24.02,-84.8 24.02,-48.8 109.98,-48.8 109.98,-84.8"/>
<text text-anchor="middle" x="67" y="-62.6" font-family="Times,serif" font-size="14.00">UserModule</text>
</g>
<!-- UserModule&#45;&gt;OrderModule -->
<g id="edge6" class="edge">
<title>UserModule&#45;&gt;OrderModule</title>
<path fill="none" stroke="black" d="M67,-85.08C67,-106.12 67,-137.8 67,-137.8 67,-137.8 388.65,-137.8 388.65,-137.8"/>
<polygon fill="black" stroke="black" points="388.65,-141.3 398.65,-137.8 388.65,-134.3 388.65,-141.3"/>
</g>
</g>
</svg>
