<?xml version="1.0" encoding="UTF-8" standalone="no"?>
<!DOCTYPE svg PUBLIC "-//W3C//DTD SVG 1.1//EN"
 "http://www.w3.org/Graphics/SVG/1.1/DTD/svg11.dtd">
<!-- Generated by graphviz version 2.47.3 (20210619.1520)
 -->
<!-- Title: dependencies Pages: 1 -->
<svg width="688pt" height="174pt"
 viewBox="0.00 0.00 688.00 173.80" xmlns="http://www.w3.org/2000/svg" xmlns:xlink="http://www.w3.org/1999/xlink">
<g id="graph0" class="graph" transform="scale(1 1) rotate(0) translate(4 169.8)">
<title>dependencies</title>
<polygon fill="white" stroke="transparent" points="-4,4 -4,-169.8 684,-169.8 684,4 -4,4"/>
<text text-anchor="middle" x="340" y="-8.2" font-family="sans-serif" font-size="14.00">dependencies</text>
<g id="clust1" class="cluster">
<title>cluster_UserModule</title>
<polygon fill="none" stroke="black" stroke-dasharray="1,5" points="8,-32.8 8,-157.8 672,-157.8 672,-32.8 8,-32.8"/>
</g>
<g id="clust2" class="cluster">
<title>cluster_UserModule_declarations</title>
<polygon fill="none" stroke="black" points="16,-40.8 16,-92.8 664,-92.8 664,-40.8 16,-40.8"/>
</g>
<!-- UserContainerComponent -->
<g id="node1" class="node">
<title>UserContainerComponent</title>
<polygon fill="#ffffb3" stroke="black" points="656.47,-84.8 493.53,-84.8 493.53,-48.8 656.47,-48.8 656.47,-84.8"/>
<text text-anchor="middle" x="575" y="-62.6" font-family="Times,serif" font-size="14.00">UserContainerComponent</text>
</g>
<!-- UserModule -->
<g id="node5" class="node">
<title>UserModule</title>
<polygon fill="#8dd3c7" stroke="black" points="370.98,-149.8 367.98,-153.8 346.98,-153.8 343.98,-149.8 285.02,-149.8 285.02,-113.8 370.98,-113.8 370.98,-149.8"/>
<text text-anchor="middle" x="328" y="-127.6" font-family="Times,serif" font-size="14.00">UserModule</text>
</g>
<!-- UserContainerComponent&#45;&gt;UserModule -->
<g id="edge1" class="edge">
<title>UserContainerComponent&#45;&gt;UserModule</title>
<path fill="none" stroke="black" d="M575,-84.91C575,-104.14 575,-131.8 575,-131.8 575,-131.8 381.02,-131.8 381.02,-131.8"/>
<polygon fill="black" stroke="black" points="381.02,-128.3 371.02,-131.8 381.02,-135.3 381.02,-128.3"/>
</g>
<!-- UserDetailComponent -->
<g id="node2" class="node">
<title>UserDetailComponent</title>
<polygon fill="#ffffb3" stroke="black" points="475.97,-84.8 334.03,-84.8 334.03,-48.8 475.97,-48.8 475.97,-84.8"/>
<text text-anchor="middle" x="405" y="-62.6" font-family="Times,serif" font-size="14.00">UserDetailComponent</text>
</g>
<!-- UserDetailComponent&#45;&gt;UserModule -->
<g id="edge2" class="edge">
<title>UserDetailComponent&#45;&gt;UserModule</title>
<path fill="none" stroke="black" d="M352.5,-84.91C352.5,-84.91 352.5,-103.79 352.5,-103.79"/>
<polygon fill="black" stroke="black" points="349,-103.79 352.5,-113.79 356,-103.79 349,-103.79"/>
</g>
<!-- UserListComponent -->
<g id="node3" class="node">
<title>UserListComponent</title>
<polygon fill="#ffffb3" stroke="black" points="315.54,-84.8 186.46,-84.8 186.46,-48.8 315.54,-48.8 315.54,-84.8"/>
<text text-anchor="middle" x="251" y="-62.6" font-family="Times,serif" font-size="14.00">UserListComponent</text>
</g>
<!-- UserListComponent&#45;&gt;UserModule -->
<g id="edge3" class="edge">
<title>UserListComponent&#45;&gt;UserModule</title>
<path fill="none" stroke="black" d="M300.39,-84.91C300.39,-84.91 300.39,-103.79 300.39,-103.79"/>
<polygon fill="black" stroke="black" points="296.89,-103.79 300.39,-113.79 303.89,-103.79 296.89,-103.79"/>
</g>
<!-- UserSingleComponent -->
<g id="node4" class="node">
<title>UserSingleComponent</title>
<polygon fill="#ffffb3" stroke="black" points="167.54,-84.8 24.46,-84.8 24.46,-48.8 167.54,-48.8 167.54,-84.8"/>
<text text-anchor="middle" x="96" y="-62.6" font-family="Times,serif" font-size="14.00">UserSingleComponent</text>
</g>
<!-- UserSingleComponent&#45;&gt;UserModule -->
<g id="edge4" class="edge">
<title>UserSingleComponent&#45;&gt;UserModule</title>
<path fill="none" stroke="black" d="M96,-84.91C96,-104.14 96,-131.8 96,-131.8 96,-131.8 274.91,-131.8 274.91,-131.8"/>
<polygon fill="black" stroke="black" points="274.91,-135.3 284.91,-131.8 274.91,-128.3 274.91,-135.3"/>
</g>
</g>
</svg>
