<?xml version="1.0" encoding="UTF-8" standalone="no"?>
<!DOCTYPE svg PUBLIC "-//W3C//DTD SVG 1.1//EN"
 "http://www.w3.org/Graphics/SVG/1.1/DTD/svg11.dtd">
<!-- Generated by graphviz version 2.47.3 (20210619.1520)
 -->
<!-- Title: dependencies Pages: 1 -->
<svg width="844pt" height="247pt"
 viewBox="0.00 0.00 844.00 246.80" xmlns="http://www.w3.org/2000/svg" xmlns:xlink="http://www.w3.org/1999/xlink">
<g id="graph0" class="graph" transform="scale(1 1) rotate(0) translate(4 242.8)">
<title>dependencies</title>
<polygon fill="white" stroke="transparent" points="-4,4 -4,-242.8 840,-242.8 840,4 -4,4"/>
<text text-anchor="middle" x="418" y="-8.2" font-family="sans-serif" font-size="14.00">dependencies</text>
<g id="clust1" class="cluster">
<title>cluster_UserModule</title>
<polygon fill="none" stroke="black" stroke-dasharray="1,5" points="8,-32.8 8,-230.8 828,-230.8 828,-32.8 8,-32.8"/>
</g>
<g id="clust7" class="cluster">
<title>cluster_UserModule_imports</title>
<polygon fill="none" stroke="black" points="672,-40.8 672,-92.8 820,-92.8 820,-40.8 672,-40.8"/>
</g>
<g id="clust2" class="cluster">
<title>cluster_UserModule_declarations</title>
<polygon fill="none" stroke="black" points="16,-40.8 16,-92.8 664,-92.8 664,-40.8 16,-40.8"/>
</g>
<g id="clust8" class="cluster">
<title>cluster_UserModule_exports</title>
<polygon fill="none" stroke="black" points="323,-170.8 323,-222.8 487,-222.8 487,-170.8 323,-170.8"/>
</g>
<!-- UserContainerComponent -->
<g id="node1" class="node">
<title>UserContainerComponent</title>
<polygon fill="#ffffb3" stroke="black" points="656.47,-84.8 493.53,-84.8 493.53,-48.8 656.47,-48.8 656.47,-84.8"/>
<text text-anchor="middle" x="575" y="-62.6" font-family="Times,serif" font-size="14.00">UserContainerComponent</text>
</g>
<!-- UserModule -->
<g id="node5" class="node">
<title>UserModule</title>
<polygon fill="#8dd3c7" stroke="black" points="447.98,-149.8 444.98,-153.8 423.98,-153.8 420.98,-149.8 362.02,-149.8 362.02,-113.8 447.98,-113.8 447.98,-149.8"/>
<text text-anchor="middle" x="405" y="-127.6" font-family="Times,serif" font-size="14.00">UserModule</text>
</g>
<!-- UserContainerComponent&#45;&gt;UserModule -->
<g id="edge1" class="edge">
<title>UserContainerComponent&#45;&gt;UserModule</title>
<path fill="none" stroke="black" d="M575,-84.82C575,-102.17 575,-125.8 575,-125.8 575,-125.8 458.34,-125.8 458.34,-125.8"/>
<polygon fill="black" stroke="black" points="458.34,-122.3 448.34,-125.8 458.34,-129.3 458.34,-122.3"/>
</g>
<!-- UserDetailComponent -->
<g id="node2" class="node">
<title>UserDetailComponent</title>
<polygon fill="#ffffb3" stroke="black" points="475.97,-84.8 334.03,-84.8 334.03,-48.8 475.97,-48.8 475.97,-84.8"/>
<text text-anchor="middle" x="405" y="-62.6" font-family="Times,serif" font-size="14.00">UserDetailComponent</text>
</g>
<!-- UserDetailComponent&#45;&gt;UserModule -->
<g id="edge2" class="edge">
<title>UserDetailComponent&#45;&gt;UserModule</title>
<path fill="none" stroke="black" d="M405,-84.91C405,-84.91 405,-103.79 405,-103.79"/>
<polygon fill="black" stroke="black" points="401.5,-103.79 405,-113.79 408.5,-103.79 401.5,-103.79"/>
</g>
<!-- UserListComponent -->
<g id="node3" class="node">
<title>UserListComponent</title>
<polygon fill="#ffffb3" stroke="black" points="315.54,-84.8 186.46,-84.8 186.46,-48.8 315.54,-48.8 315.54,-84.8"/>
<text text-anchor="middle" x="251" y="-62.6" font-family="Times,serif" font-size="14.00">UserListComponent</text>
</g>
<!-- UserListComponent&#45;&gt;UserModule -->
<g id="edge3" class="edge">
<title>UserListComponent&#45;&gt;UserModule</title>
<path fill="none" stroke="black" d="M251,-84.82C251,-102.17 251,-125.8 251,-125.8 251,-125.8 351.69,-125.8 351.69,-125.8"/>
<polygon fill="black" stroke="black" points="351.69,-129.3 361.69,-125.8 351.69,-122.3 351.69,-129.3"/>
</g>
<!-- UserSingleComponent -->
<g id="node4" class="node">
<title>UserSingleComponent</title>
<polygon fill="#ffffb3" stroke="black" points="167.54,-84.8 24.46,-84.8 24.46,-48.8 167.54,-48.8 167.54,-84.8"/>
<text text-anchor="middle" x="96" y="-62.6" font-family="Times,serif" font-size="14.00">UserSingleComponent</text>
</g>
<!-- UserSingleComponent&#45;&gt;UserModule -->
<g id="edge4" class="edge">
<title>UserSingleComponent&#45;&gt;UserModule</title>
<path fill="none" stroke="black" d="M96,-85.08C96,-106.12 96,-137.8 96,-137.8 96,-137.8 351.71,-137.8 351.71,-137.8"/>
<polygon fill="black" stroke="black" points="351.71,-141.3 361.71,-137.8 351.71,-134.3 351.71,-141.3"/>
</g>
<!-- UserSingleComponent  -->
<g id="node7" class="node">
<title>UserSingleComponent </title>
<polygon fill="#fb8072" stroke="black" points="478.54,-214.8 331.46,-214.8 331.46,-178.8 478.54,-178.8 478.54,-214.8"/>
<text text-anchor="middle" x="405" y="-192.6" font-family="Times,serif" font-size="14.00">UserSingleComponent </text>
</g>
<!-- UserModule&#45;&gt;UserSingleComponent  -->
<g id="edge6" class="edge">
<title>UserModule&#45;&gt;UserSingleComponent </title>
<path fill="none" stroke="black" stroke-dasharray="5,2" d="M405,-149.91C405,-149.91 405,-168.79 405,-168.79"/>
<polygon fill="black" stroke="black" points="401.5,-168.79 405,-178.79 408.5,-168.79 401.5,-168.79"/>
</g>
<!-- UserRoutingModule -->
<g id="node6" class="node">
<title>UserRoutingModule</title>
<polygon fill="#8dd3c7" stroke="black" points="811.59,-84.8 808.59,-88.8 787.59,-88.8 784.59,-84.8 680.41,-84.8 680.41,-48.8 811.59,-48.8 811.59,-84.8"/>
<text text-anchor="middle" x="746" y="-62.6" font-family="Times,serif" font-size="14.00">UserRoutingModule</text>
</g>
<!-- UserRoutingModule&#45;&gt;UserModule -->
<g id="edge5" class="edge">
<title>UserRoutingModule&#45;&gt;UserModule</title>
<path fill="none" stroke="black" d="M746,-85.08C746,-106.12 746,-137.8 746,-137.8 746,-137.8 458.19,-137.8 458.19,-137.8"/>
<polygon fill="black" stroke="black" points="458.19,-134.3 448.19,-137.8 458.19,-141.3 458.19,-134.3"/>
</g>
</g>
</svg>
