<?xml version="1.0" encoding="UTF-8" standalone="no"?>
<!DOCTYPE svg PUBLIC "-//W3C//DTD SVG 1.1//EN"
 "http://www.w3.org/Graphics/SVG/1.1/DTD/svg11.dtd">
<!-- Generated by graphviz version 2.47.3 (20210619.1520)
 -->
<!-- Title: dependencies Pages: 1 -->
<svg width="1684pt" height="247pt"
 viewBox="0.00 0.00 1684.00 246.80" xmlns="http://www.w3.org/2000/svg" xmlns:xlink="http://www.w3.org/1999/xlink">
<g id="graph0" class="graph" transform="scale(1 1) rotate(0) translate(4 242.8)">
<title>dependencies</title>
<polygon fill="white" stroke="transparent" points="-4,4 -4,-242.8 1680,-242.8 1680,4 -4,4"/>
<text text-anchor="middle" x="838" y="-8.2" font-family="sans-serif" font-size="14.00">dependencies</text>
<g id="clust1" class="cluster">
<title>cluster_AppModule</title>
<polygon fill="none" stroke="black" stroke-dasharray="1,5" points="8,-32.8 8,-230.8 298,-230.8 298,-32.8 8,-32.8"/>
</g>
<g id="clust2" class="cluster">
<title>cluster_AppModule_declarations</title>
<polygon fill="none" stroke="black" points="168,-40.8 168,-92.8 290,-92.8 290,-40.8 168,-40.8"/>
</g>
<g id="clust4" class="cluster">
<title>cluster_AppModule_imports</title>
<polygon fill="none" stroke="black" points="16,-40.8 16,-92.8 160,-92.8 160,-40.8 16,-40.8"/>
</g>
<g id="clust6" class="cluster">
<title>cluster_AppModule_bootstrap</title>
<polygon fill="none" stroke="black" points="96,-170.8 96,-222.8 220,-222.8 220,-170.8 96,-170.8"/>
</g>
<g id="clust14" class="cluster">
<title>cluster_OrderModule</title>
<polygon fill="none" stroke="black" stroke-dasharray="1,5" points="306,-32.8 306,-157.8 996,-157.8 996,-32.8 306,-32.8"/>
</g>
<g id="clust15" class="cluster">
<title>cluster_OrderModule_declarations</title>
<polygon fill="none" stroke="black" points="314,-40.8 314,-92.8 988,-92.8 988,-40.8 314,-40.8"/>
</g>
<g id="clust24" class="cluster">
<title>cluster_UserModule</title>
<polygon fill="none" stroke="black" stroke-dasharray="1,5" points="1004,-32.8 1004,-157.8 1668,-157.8 1668,-32.8 1004,-32.8"/>
</g>
<g id="clust25" class="cluster">
<title>cluster_UserModule_declarations</title>
<polygon fill="none" stroke="black" points="1012,-40.8 1012,-92.8 1660,-92.8 1660,-40.8 1012,-40.8"/>
</g>
<!-- AppComponent -->
<g id="node1" class="node">
<title>AppComponent</title>
<polygon fill="#ffffb3" stroke="black" points="281.94,-84.8 176.06,-84.8 176.06,-48.8 281.94,-48.8 281.94,-84.8"/>
<text text-anchor="middle" x="229" y="-62.6" font-family="Times,serif" font-size="14.00">AppComponent</text>
</g>
<!-- AppModule -->
<g id="node2" class="node">
<title>AppModule</title>
<polygon fill="#8dd3c7" stroke="black" points="199.66,-149.8 196.66,-153.8 175.66,-153.8 172.66,-149.8 116.34,-149.8 116.34,-113.8 199.66,-113.8 199.66,-149.8"/>
<text text-anchor="middle" x="158" y="-127.6" font-family="Times,serif" font-size="14.00">AppModule</text>
</g>
<!-- AppComponent&#45;&gt;AppModule -->
<g id="edge1" class="edge">
<title>AppComponent&#45;&gt;AppModule</title>
<path fill="none" stroke="black" d="M188.05,-84.91C188.05,-84.91 188.05,-103.79 188.05,-103.79"/>
<polygon fill="black" stroke="black" points="184.55,-103.79 188.05,-113.79 191.55,-103.79 184.55,-103.79"/>
</g>
<!-- AppComponent  -->
<g id="node4" class="node">
<title>AppComponent </title>
<polygon fill="#80b1d3" stroke="black" points="212.44,-214.8 103.56,-214.8 103.56,-178.8 212.44,-178.8 212.44,-214.8"/>
<text text-anchor="middle" x="158" y="-192.6" font-family="Times,serif" font-size="14.00">AppComponent </text>
</g>
<!-- AppModule&#45;&gt;AppComponent  -->
<g id="edge3" class="edge">
<title>AppModule&#45;&gt;AppComponent </title>
<path fill="none" stroke="black" stroke-dasharray="1,5" d="M158,-149.91C158,-149.91 158,-168.79 158,-168.79"/>
<polygon fill="black" stroke="black" points="154.5,-168.79 158,-178.79 161.5,-168.79 154.5,-168.79"/>
</g>
<!-- AppRoutingModule -->
<g id="node3" class="node">
<title>AppRoutingModule</title>
<polygon fill="#8dd3c7" stroke="black" points="152.27,-84.8 149.27,-88.8 128.27,-88.8 125.27,-84.8 23.73,-84.8 23.73,-48.8 152.27,-48.8 152.27,-84.8"/>
<text text-anchor="middle" x="88" y="-62.6" font-family="Times,serif" font-size="14.00">AppRoutingModule</text>
</g>
<!-- AppRoutingModule&#45;&gt;AppModule -->
<g id="edge2" class="edge">
<title>AppRoutingModule&#45;&gt;AppModule</title>
<path fill="none" stroke="black" d="M134.28,-84.91C134.28,-84.91 134.28,-103.79 134.28,-103.79"/>
<polygon fill="black" stroke="black" points="130.78,-103.79 134.28,-113.79 137.78,-103.79 130.78,-103.79"/>
</g>
<!-- OrderContainerComponent -->
<g id="node5" class="node">
<title>OrderContainerComponent</title>
<polygon fill="#ffffb3" stroke="black" points="979.68,-84.8 810.32,-84.8 810.32,-48.8 979.68,-48.8 979.68,-84.8"/>
<text text-anchor="middle" x="895" y="-62.6" font-family="Times,serif" font-size="14.00">OrderContainerComponent</text>
</g>
<!-- OrderModule -->
<g id="node9" class="node">
<title>OrderModule</title>
<polygon fill="#8dd3c7" stroke="black" points="684.19,-149.8 681.19,-153.8 660.19,-153.8 657.19,-149.8 591.81,-149.8 591.81,-113.8 684.19,-113.8 684.19,-149.8"/>
<text text-anchor="middle" x="638" y="-127.6" font-family="Times,serif" font-size="14.00">OrderModule</text>
</g>
<!-- OrderContainerComponent&#45;&gt;OrderModule -->
<g id="edge4" class="edge">
<title>OrderContainerComponent&#45;&gt;OrderModule</title>
<path fill="none" stroke="black" d="M895,-84.82C895,-102.17 895,-125.8 895,-125.8 895,-125.8 694.24,-125.8 694.24,-125.8"/>
<polygon fill="black" stroke="black" points="694.24,-122.3 684.24,-125.8 694.24,-129.3 694.24,-122.3"/>
</g>
<!-- OrderDetailComponent -->
<g id="node6" class="node">
<title>OrderDetailComponent</title>
<polygon fill="#ffffb3" stroke="black" points="792.18,-84.8 643.82,-84.8 643.82,-48.8 792.18,-48.8 792.18,-84.8"/>
<text text-anchor="middle" x="718" y="-62.6" font-family="Times,serif" font-size="14.00">OrderDetailComponent</text>
</g>
<!-- OrderDetailComponent&#45;&gt;OrderModule -->
<g id="edge5" class="edge">
<title>OrderDetailComponent&#45;&gt;OrderModule</title>
<path fill="none" stroke="black" d="M664,-84.91C664,-84.91 664,-103.79 664,-103.79"/>
<polygon fill="black" stroke="black" points="660.5,-103.79 664,-113.79 667.5,-103.79 660.5,-103.79"/>
</g>
<!-- OrderListComponent -->
<g id="node7" class="node">
<title>OrderListComponent</title>
<polygon fill="#ffffb3" stroke="black" points="625.75,-84.8 490.25,-84.8 490.25,-48.8 625.75,-48.8 625.75,-84.8"/>
<text text-anchor="middle" x="558" y="-62.6" font-family="Times,serif" font-size="14.00">OrderListComponent</text>
</g>
<!-- OrderListComponent&#45;&gt;OrderModule -->
<g id="edge6" class="edge">
<title>OrderListComponent&#45;&gt;OrderModule</title>
<path fill="none" stroke="black" d="M608.89,-84.91C608.89,-84.91 608.89,-103.79 608.89,-103.79"/>
<polygon fill="black" stroke="black" points="605.39,-103.79 608.89,-113.79 612.39,-103.79 605.39,-103.79"/>
</g>
<!-- OrderSingleComponent -->
<g id="node8" class="node">
<title>OrderSingleComponent</title>
<polygon fill="#ffffb3" stroke="black" points="471.75,-84.8 322.25,-84.8 322.25,-48.8 471.75,-48.8 471.75,-84.8"/>
<text text-anchor="middle" x="397" y="-62.6" font-family="Times,serif" font-size="14.00">OrderSingleComponent</text>
</g>
<!-- OrderSingleComponent&#45;&gt;OrderModule -->
<g id="edge7" class="edge">
<title>OrderSingleComponent&#45;&gt;OrderModule</title>
<path fill="none" stroke="black" d="M397,-84.91C397,-104.14 397,-131.8 397,-131.8 397,-131.8 581.82,-131.8 581.82,-131.8"/>
<polygon fill="black" stroke="black" points="581.82,-135.3 591.82,-131.8 581.82,-128.3 581.82,-135.3"/>
</g>
<!-- UserContainerComponent -->
<g id="node10" class="node">
<title>UserContainerComponent</title>
<polygon fill="#ffffb3" stroke="black" points="1652.47,-84.8 1489.53,-84.8 1489.53,-48.8 1652.47,-48.8 1652.47,-84.8"/>
<text text-anchor="middle" x="1571" y="-62.6" font-family="Times,serif" font-size="14.00">UserContainerComponent</text>
</g>
<!-- UserModule -->
<g id="node14" class="node">
<title>UserModule</title>
<polygon fill="#8dd3c7" stroke="black" points="1366.98,-149.8 1363.98,-153.8 1342.98,-153.8 1339.98,-149.8 1281.02,-149.8 1281.02,-113.8 1366.98,-113.8 1366.98,-149.8"/>
<text text-anchor="middle" x="1324" y="-127.6" font-family="Times,serif" font-size="14.00">UserModule</text>
</g>
<!-- UserContainerComponent&#45;&gt;UserModule -->
<g id="edge8" class="edge">
<title>UserContainerComponent&#45;&gt;UserModule</title>
<path fill="none" stroke="black" d="M1571,-84.91C1571,-104.14 1571,-131.8 1571,-131.8 1571,-131.8 1377.02,-131.8 1377.02,-131.8"/>
<polygon fill="black" stroke="black" points="1377.02,-128.3 1367.02,-131.8 1377.02,-135.3 1377.02,-128.3"/>
</g>
<!-- UserDetailComponent -->
<g id="node11" class="node">
<title>UserDetailComponent</title>
<polygon fill="#ffffb3" stroke="black" points="1471.97,-84.8 1330.03,-84.8 1330.03,-48.8 1471.97,-48.8 1471.97,-84.8"/>
<text text-anchor="middle" x="1401" y="-62.6" font-family="Times,serif" font-size="14.00">UserDetailComponent</text>
</g>
<!-- UserDetailComponent&#45;&gt;UserModule -->
<g id="edge9" class="edge">
<title>UserDetailComponent&#45;&gt;UserModule</title>
<path fill="none" stroke="black" d="M1348.5,-84.91C1348.5,-84.91 1348.5,-103.79 1348.5,-103.79"/>
<polygon fill="black" stroke="black" points="1345,-103.79 1348.5,-113.79 1352,-103.79 1345,-103.79"/>
</g>
<!-- UserListComponent -->
<g id="node12" class="node">
<title>UserListComponent</title>
<polygon fill="#ffffb3" stroke="black" points="1311.54,-84.8 1182.46,-84.8 1182.46,-48.8 1311.54,-48.8 1311.54,-84.8"/>
<text text-anchor="middle" x="1247" y="-62.6" font-family="Times,serif" font-size="14.00">UserListComponent</text>
</g>
<!-- UserListComponent&#45;&gt;UserModule -->
<g id="edge10" class="edge">
<title>UserListComponent&#45;&gt;UserModule</title>
<path fill="none" stroke="black" d="M1296.39,-84.91C1296.39,-84.91 1296.39,-103.79 1296.39,-103.79"/>
<polygon fill="black" stroke="black" points="1292.89,-103.79 1296.39,-113.79 1299.89,-103.79 1292.89,-103.79"/>
</g>
<!-- UserSingleComponent -->
<g id="node13" class="node">
<title>UserSingleComponent</title>
<polygon fill="#ffffb3" stroke="black" points="1163.54,-84.8 1020.46,-84.8 1020.46,-48.8 1163.54,-48.8 1163.54,-84.8"/>
<text text-anchor="middle" x="1092" y="-62.6" font-family="Times,serif" font-size="14.00">UserSingleComponent</text>
</g>
<!-- UserSingleComponent&#45;&gt;UserModule -->
<g id="edge11" class="edge">
<title>UserSingleComponent&#45;&gt;UserModule</title>
<path fill="none" stroke="black" d="M1092,-85.08C1092,-106.12 1092,-137.8 1092,-137.8 1092,-137.8 1270.91,-137.8 1270.91,-137.8"/>
<polygon fill="black" stroke="black" points="1270.91,-141.3 1280.91,-137.8 1270.91,-134.3 1270.91,-141.3"/>
</g>
</g>
</svg>
